<svg width="146" height="34" viewBox="0 0 146 34" fill="none" xmlns="http://www.w3.org/2000/svg">
<g id="&#231;&#187;&#145;&#229;&#174;&#154;&#230;&#136;&#144;&#229;&#138;&#159;">
<g id="&#231;&#187;&#145;&#229;&#174;&#154;&#230;&#136;&#144;&#229;&#138;&#159;_2">
<g id="Group 6">
<path id="Rectangle 82" d="M55 22L45 22C43.8954 22 43 21.1046 43 20L43 14C43 12.8954 43.8954 12 45 12L55 12" stroke="white" stroke-width="2"/>
<path id="Rectangle 83" d="M58 12L68 12C69.1046 12 70 12.8954 70 14L70 20C70 21.1046 69.1046 22 68 22L58 22" stroke="white" stroke-width="2"/>
<path id="Vector 150" d="M50 17L63 17" stroke="white" stroke-width="2"/>
</g>
<g id="Group 30">
<circle id="Ellipse 197" cx="2" cy="2" r="2" transform="matrix(-1 0 0 1 100 15)" fill="white"/>
<circle id="Ellipse 205" cx="2" cy="2" r="2" transform="matrix(-1 0 0 1 130 15)" fill="white"/>
<circle id="Ellipse 202" opacity="0.4" cx="2" cy="2" r="2" transform="matrix(-1 0 0 1 114 15)" fill="white"/>
<circle id="Ellipse 206" opacity="0.4" cx="2" cy="2" r="2" transform="matrix(-1 0 0 1 146 15)" fill="white"/>
<circle id="Ellipse 198" opacity="0.4" cx="2" cy="2" r="2" transform="matrix(-1 0 0 1 86 15)" fill="white"/>
</g>
<g id="Group 29">
<circle id="Ellipse 199" opacity="0.4" cx="2" cy="2" r="2" transform="matrix(-1 0 0 1 32 15)" fill="white"/>
<circle id="Ellipse 201" opacity="0.4" cx="2" cy="2" r="2" transform="matrix(-1 0 0 1 4 15)" fill="white"/>
</g>
</g>
</g>
</svg>
